<?xml version="1.0" standalone="no"?>
<!DOCTYPE svg PUBLIC "-//W3C//DTD SVG 20010904//EN"
 "http://www.w3.org/TR/2001/REC-SVG-20010904/DTD/svg10.dtd">
<svg version="1.0" xmlns="http://www.w3.org/2000/svg"
 width="9464.000000pt" height="5975.000000pt" viewBox="0 0 9464.000000 5975.000000"
 preserveAspectRatio="xMidYMid meet">

<g transform="translate(0.000000,5975.000000) scale(0.100000,-0.100000)"
fill="#000000" stroke="none">
<path d="M32678 33802 l-78 -3 0 -1038 0 -1039 -192 -120 c-1063 -661 -1874
-1057 -2399 -1171 -492 -106 -801 24 -875 369 -17 82 -17 254 0 345 8 39 12
72 9 75 -2 2 -46 -16 -96 -42 -354 -181 -525 -406 -487 -640 39 -244 316 -483
667 -575 192 -50 431 -42 645 22 502 151 1143 551 2873 1795 471 338 720 510
960 662 455 288 857 493 1196 610 66 22 119 43 119 47 0 7 -175 122 -284 186
-290 170 -689 331 -1021 410 -323 78 -729 120 -1037 107z"/>
<path d="M35385 32833 c-213 -26 -509 -126 -800 -268 -284 -139 -765 -433
-765 -468 0 -10 -22 -32 -55 -53 -108 -68 -358 -245 -540 -381 l-185 -137 0
-608 0 -608 108 84 c150 117 491 359 722 513 848 566 1518 840 2147 879 l112
7 24 66 c47 127 62 216 61 366 0 126 -3 148 -28 219 -36 104 -69 159 -138 228
-69 69 -188 130 -300 152 -71 15 -278 20 -363 9z"/>
<path d="M62660 32249 c-1140 -83 -2047 -485 -2523 -1120 -205 -274 -324 -571
-373 -929 -16 -125 -19 -469 -3 -608 95 -872 704 -1524 1745 -1868 389 -128
848 -207 1304 -223 1412 -49 2607 412 3132 1208 233 352 329 697 329 1174 0
232 -17 384 -62 565 -144 584 -551 1058 -1179 1376 -473 240 -1025 380 -1680
426 -167 11 -523 11 -690 -1z m805 -907 c518 -81 906 -252 1164 -512 262 -265
371 -544 371 -950 0 -410 -110 -692 -375 -955 -279 -278 -672 -445 -1230 -521
-178 -24 -567 -25 -750 -1 -822 109 -1356 448 -1549 985 -55 155 -70 258 -70
492 0 185 3 229 22 318 57 261 153 434 352 632 173 174 398 304 688 400 193
63 357 97 662 134 19 2 159 3 310 1 217 -2 303 -7 405 -23z"/>
<path d="M39030 29895 l0 -2325 605 0 605 0 0 985 0 985 1490 0 1490 0 0 -985
0 -985 605 0 605 0 0 2325 0 2325 -605 0 -605 0 0 -895 0 -895 -1490 0 -1490
0 0 895 0 895 -605 0 -605 0 0 -2325z"/>
<path d="M47837 32208 c-2 -7 -419 -1051 -926 -2321 -506 -1269 -921 -2310
-921 -2312 0 -3 291 -4 646 -3 l646 3 207 550 207 550 1264 2 1265 3 205 -553
206 -552 647 -3 c356 -1 647 1 647 5 0 3 -417 1050 -926 2325 l-926 2318
-1118 0 c-885 0 -1119 -3 -1123 -12z m1765 -1766 l346 -917 -494 -3 c-272 -1
-716 -1 -988 0 l-493 3 338 895 c186 492 343 905 349 918 l10 22 292 0 293 0
347 -918z"/>
<path d="M52610 32210 c0 -5 476 -1050 1059 -2322 l1059 -2313 954 -3 953 -2
1060 2310 c583 1271 1061 2318 1063 2326 3 12 -83 14 -658 12 l-662 -3 -833
-1890 -832 -1890 -89 -3 -89 -3 -832 1893 -832 1893 -661 3 c-434 1 -660 -1
-660 -8z"/>
<path d="M35900 31463 c-86 -10 -285 -55 -385 -88 -237 -79 -531 -218 -812
-385 -124 -73 -153 -95 -153 -113 0 -15 -13 -29 -43 -46 -164 -93 -517 -334
-835 -571 l-181 -135 -1 -604 0 -603 26 17 c14 9 94 67 177 129 995 737 1681
1115 2308 1270 189 47 292 64 471 78 l147 12 21 52 c62 152 87 387 57 530 -53
248 -231 410 -497 453 -62 10 -225 12 -300 4z"/>
<path d="M36435 30174 c-638 -68 -1548 -601 -2597 -1523 l-98 -86 0 -1252 0
-1253 28 6 c395 94 843 302 1195 554 421 301 792 707 1086 1188 153 250 309
569 401 824 l43 117 86 64 c221 165 395 406 463 643 20 68 23 102 23 249 0
163 -1 172 -27 227 -49 106 -156 186 -295 222 -63 16 -236 27 -308 20z"/>
<path d="M28926 29386 c-45 -107 -58 -274 -31 -401 18 -85 79 -210 140 -287
173 -219 503 -345 847 -324 165 10 154 4 229 120 l66 102 -51 -7 c-92 -13
-293 -10 -374 6 -123 25 -232 82 -317 168 -119 119 -174 262 -175 447 l0 86
-87 28 c-49 16 -121 43 -161 62 l-72 33 -14 -33z"/>
<path d="M29400 27843 c1 -90 53 -226 131 -339 116 -167 292 -285 520 -346 72
-19 110 -22 267 -23 l183 0 44 80 44 80 -147 1 c-168 0 -243 15 -362 71 -134
64 -267 222 -311 371 -7 23 -13 42 -14 42 -41 0 -281 61 -342 86 -9 4 -13 -4
-13 -23z"/>
</g>
</svg>
